<?xml version="1.0" standalone="no"?>
<!DOCTYPE svg PUBLIC "-//W3C//DTD SVG 20010904//EN"
 "http://www.w3.org/TR/2001/REC-SVG-20010904/DTD/svg10.dtd">
<svg version="1.0" xmlns="http://www.w3.org/2000/svg"
 width="500.000000pt" height="500.000000pt" viewBox="0 0 500.000000 500.000000"
 preserveAspectRatio="xMidYMid meet">

<g transform="translate(0.000000,500.000000) scale(0.100000,-0.100000)"
fill="currentColor" stroke="none">
<path d="M2650 2725 c0 -113 -2 -205 -4 -205 -2 0 -25 12 -52 28 -65 36 -176
38 -239 5 -43 -22 -125 -104 -125 -124 0 -6 -21 11 -47 39 -29 31 -72 62 -108
79 -52 24 -72 28 -150 28 -76 0 -99 -4 -145 -26 -113 -53 -169 -127 -177 -233
-7 -80 14 -148 63 -205 123 -143 400 -140 522 6 l35 42 28 -39 c56 -78 121
-112 214 -113 65 0 125 20 162 55 l23 21 0 -31 0 -32 90 0 90 0 1 88 c0 71 2
84 12 68 65 -103 135 -150 245 -166 213 -30 381 94 382 280 0 119 -78 227
-193 267 -75 26 -207 24 -269 -4 -69 -32 -115 -70 -146 -122 l-27 -46 -3 273
-2 272 -90 0 -90 0 0 -205z m-659 -328 c62 -42 78 -116 36 -178 -43 -65 -143
-72 -197 -14 -28 29 -37 107 -18 145 19 35 75 70 113 70 18 0 47 -10 66 -23z
m600 0 c62 -42 78 -116 36 -178 -43 -65 -143 -72 -197 -14 -28 29 -37 107 -18
145 19 35 75 70 113 70 18 0 47 -10 66 -23z m613 8 c42 -20 66 -63 66 -118 0
-84 -77 -139 -162 -117 -98 27 -116 168 -29 227 39 27 80 29 125 8z"/>
<path d="M1050 2805 l0 -85 105 0 105 0 0 -350 0 -350 100 0 100 0 0 350 0
350 100 0 100 0 0 85 0 85 -305 0 -305 0 0 -85z"/>
<path d="M3731 2237 c-103 -36 -102 -189 2 -224 78 -26 157 30 157 111 0 51
-28 92 -76 112 -39 16 -39 16 -83 1z"/>
</g>
</svg>
